PathFileType	4	(X/Y/Z)	./resultDataOpenSim/trcMotMarkerGrf/sub06/qtm-15-01.trc
DataRate	CameraRate	NumFrames	NumMarkers	Units	OrigDataRate	OrigDataStartFrame	OrigNumFrames
250.000000	250.000000	8	24	m	250.000000	321	513
Frame#	Time	L.Toe.Tip			R.Toe.Tip			L.Ankle.Lat			R.Ankle.Lat			L.Ankle.Med			R.Ankle.Med			L.Heel			R.Heel			L.Knee.Lat			R.Knee.Lat			L.Knee.Med			R.Knee.Med			L.Thigh.Upper			R.Thigh.Upper			L.ASIS			R.ASIS			V.Sacral			L.Acromium			R.Acromium			C7			L.Elbow			R.Elbow			L.Wrist.Lat			R.Wrist.Lat
		X1	Y1	Z1	X2	Y2	Z2	X3	Y3	Z3	X4	Y4	Z4	X5	Y5	Z5	X6	Y6	Z6	X7	Y7	Z7	X8	Y8	Z8	X9	Y9	Z9	X10	Y10	Z10	X11	Y11	Z11	X12	Y12	Z12	X13	Y13	Z13	X14	Y14	Z14	X15	Y15	Z15	X16	Y16	Z16	X17	Y17	Z17	X18	Y18	Z18	X19	Y19	Z19	X20	Y20	Z20	X21	Y21	Z21	X22	Y22	Z22	X23	Y23	Z23	X24	Y24	Z24

321	1.28	0.63152988	0.14517687	-0.0906512	1.0270346	0.035215922	0.043544562	0.63747326	0.27817623	-0.11704092	0.8922082	0.065585525	0.079766522	0.66421469	0.27868891	-0.036730872	0.91124052	0.089660034	-0.0070841761	0.59449145	0.33456903	-0.061367792	0.83395544	0.050048624	0.02276285	0.98145077	0.41357385	-0.17320878	1.0077075	0.43495999	0.12706713	0.98692395	0.40282803	-0.04519236	0.96959705	0.43331035	0.0062659843	0.84325132	0.78219067	-0.14398139	0.9085926	0.79908516	0.19374986	0.9225407	0.83125393	-0.11204649	0.98009111	0.84860639	0.12158077	0.77494917	0.9238467	0.044843605	0.9669972	1.3138119	-0.1749663	0.97975722	1.2994229	0.1813128	0.89792909	1.3573899	0.0049788574	0.97589093	0.98837425	-0.23238817	0.89178522	0.99570922	0.27414367	1.1907841	0.86785992	-0.20111011	1.0935846	0.84563756	0.28764493
322	1.284	0.64451723	0.14702325	-0.092565403	1.0269991	0.035266131	0.043634212	0.64900023	0.28004458	-0.11805582	0.89233858	0.066301177	0.080159419	0.6754519	0.28065684	-0.037714376	0.9112806	0.090482089	-0.0065740149	0.60507716	0.33578288	-0.062353648	0.8340008	0.051046915	0.023245413	0.99197151	0.41862997	-0.17329251	1.0073846	0.43612882	0.12715965	0.99700831	0.40795898	-0.045153872	0.96905796	0.43453352	0.0064319728	0.84972965	0.7859995	-0.14477604	0.91238336	0.8013522	0.19328245	0.92863743	0.83486584	-0.11233943	0.98473564	0.85147772	0.12177708	0.78010102	0.92683026	0.044204187	0.9712768	1.3168611	-0.17523207	0.98437445	1.303259	0.18094787	0.90231552	1.360558	0.0046950016	0.97618236	0.99159414	-0.23340501	0.90011097	0.99824912	0.27396209	1.1887175	0.86626502	-0.20509491	1.106957	0.85405681	0.28402265
323	1.288	0.65744523	0.14869482	-0.094546194	1.0269947	0.035329079	0.043716998	0.66055859	0.28171632	-0.11912055	0.89251378	0.067100321	0.080577853	0.68665012	0.28238001	-0.038714368	0.91139056	0.091375972	-0.0060655533	0.61561572	0.336746	-0.063333136	0.83403684	0.05216515	0.023809831	1.0023585	0.42362844	-0.17331632	1.0069954	0.43736288	0.12730889	1.0067127	0.41312074	-0.045086681	0.96857483	0.43570987	0.0066113709	0.85621737	0.78971696	-0.14556323	0.91612647	0.80359481	0.19318057	0.93476403	0.83844325	-0.11258688	0.98929775	0.85424018	0.12198923	0.78522415	0.92976719	0.043565263	0.97553351	1.3198758	-0.17549496	0.98898864	1.3070176	0.18057224	0.90667985	1.3636624	0.0044340149	0.97646352	0.99483446	-0.23465578	0.90854549	1.0007908	0.27380928	1.1865324	0.8648132	-0.20910312	1.1200481	0.86255527	0.28038618
324	1.292	0.67029965	0.15020692	-0.096585558	1.0270051	0.03539184	0.043803957	0.6720737	0.28322063	-0.12020829	0.89272451	0.067992743	0.081025162	0.69778375	0.28386496	-0.039696214	0.91157029	0.092338841	-0.0055456528	0.62611528	0.33747623	-0.06428522	0.83412125	0.053375958	0.024380108	1.0126082	0.42855096	-0.17327887	1.0065383	0.43866095	0.12750793	1.0159544	0.41829467	-0.044993607	0.96775288	0.43690544	0.0067198148	0.8627196	0.79336645	-0.14629143	0.92001668	0.80594693	0.19358027	0.94088883	0.84197074	-0.11276779	0.99378086	0.85690892	0.12222752	0.79035702	0.93264136	0.042897381	0.97976692	1.3228532	-0.17575403	0.99358053	1.3106835	0.18018406	0.91101988	1.3667011	0.0041969077	0.97676771	0.9981226	-0.23588929	0.91711911	1.0033057	0.27369215	1.184234	0.86350091	-0.21313171	1.1328484	0.87110657	0.27674096
325	1.296	0.683058	0.15155671	-0.098664748	1.0270179	0.035448628	0.043906488	0.6834782	0.28457082	-0.12131082	0.89298291	0.068952926	0.081491127	0.70883275	0.28513848	-0.040638237	0.9118106	0.093366403	-0.0049971512	0.63658123	0.33800496	-0.065192647	0.83431027	0.054657558	0.024886322	1.0227016	0.43338376	-0.17318753	1.0061994	0.44002779	0.12771879	1.0250588	0.42340214	-0.044891506	0.96667334	0.43816536	0.0067265058	0.86923967	0.79695627	-0.14687998	0.9242292	0.80853838	0.19421635	0.94696802	0.84542516	-0.11294766	0.99819618	0.85949508	0.1224976	0.79555874	0.93543582	0.042137344	0.98397943	1.3257909	-0.17600712	0.99813705	1.3142501	0.17978782	0.91533545	1.3696797	0.0039902285	0.97711812	1.0014747	-0.2369122	0.92576301	1.0057653	0.27359499	1.181825	0.86232061	-0.21717605	1.1453706	0.87969936	0.27308325
326	1.3	0.69570423	0.15273327	-0.10076766	1.0270341	0.035504763	0.044028966	0.69479606	0.28576937	-0.12246539	0.89331648	0.069951637	0.081959684	0.71981326	0.28622126	-0.0415672	0.91210266	0.094452491	-0.0044115886	0.64701863	0.33834861	-0.066059239	0.83462466	0.05600835	0.025309397	1.0326236	0.43811645	-0.17306051	1.006121	0.44146536	0.12791305	1.0345365	0.42835104	-0.044787762	0.96591225	0.43945388	0.0067011375	0.87579448	0.80048287	-0.14731301	0.92848005	0.81119367	0.19444204	0.95303427	0.84881243	-0.11315229	1.0025767	0.8620232	0.12277934	0.80085746	0.93814594	0.041240115	0.98817875	1.3286867	-0.17625642	1.0026498	1.3177181	0.17939015	0.91962972	1.3726013	0.0038144948	0.97750785	1.0048796	-0.23770568	0.9343636	1.0081495	0.2734908	1.1793062	0.86126709	-0.22122602	1.1576405	0.88833743	0.26940908
327	1.304	0.7082862	0.15374635	-0.10291281	1.0270605	0.035569558	0.044171409	0.70604175	0.28680681	-0.12366291	0.893754	0.070990159	0.082429835	0.73075356	0.28711374	-0.042525355	0.91244647	0.095587803	-0.0037886797	0.65742421	0.33849836	-0.06689388	0.83502296	0.057426564	0.025692017	1.0423972	0.44273259	-0.17290948	1.0062166	0.44295531	0.12810665	1.044348	0.43312533	-0.044674536	0.96569778	0.44072403	0.0067207651	0.88241844	0.80393039	-0.14774328	0.93221474	0.81352773	0.19383993	0.95922001	0.85217104	-0.11333036	1.0070303	0.86456152	0.12304655	0.80621766	0.94077459	0.04024019	0.99236891	1.3315391	-0.1765064	1.0071126	1.3210893	0.17899452	0.92390609	1.3754625	0.0036577197	0.97791311	1.0083096	-0.23834013	0.9428872	1.0104586	0.27336377	1.176681	0.86033928	-0.22526688	1.1696568	0.89701977	0.26571828
328	1.308	0.72091509	0.15462845	-0.10515454	1.0270978	0.035645146	0.044334344	0.71715143	0.2876615	-0.12481588	0.89430436	0.072083471	0.082916835	0.7416669	0.28780151	-0.043521131	0.91284879	0.096760816	-0.0031354057	0.66778915	0.33844175	-0.067700902	0.83541673	0.058903718	0.02611596	1.052072	0.44721102	-0.17272568	1.0063327	0.44444076	0.12834193	1.0538867	0.43777486	-0.044534037	0.96578894	0.44197172	0.0067867241	0.88914227	0.80727843	-0.14836156	0.93537495	0.81544705	0.19269058	0.96558309	0.8555073	-0.11344602	1.0116124	0.86714427	0.12332617	0.81156626	0.94331747	0.039233195	0.99654622	1.3343498	-0.17675818	1.0115234	1.324366	0.17860286	0.92816411	1.3782563	0.003507814	0.97832567	1.0117344	-0.23886493	0.95139004	1.0127126	0.27321847	1.1739532	0.85953775	-0.22928384	1.1814082	0.90573428	0.26201665
